<?xml version="1.0" encoding="utf-8"?>
<!-- Generator: Adobe Illustrator 16.0.0, SVG Export Plug-In . SVG Version: 6.00 Build 0)  -->
<!DOCTYPE svg PUBLIC "-//W3C//DTD SVG 1.1//EN" "http://www.w3.org/Graphics/SVG/1.1/DTD/svg11.dtd">
<svg version="1.1" id="圖層_1" xmlns="http://www.w3.org/2000/svg" xmlns:xlink="http://www.w3.org/1999/xlink" x="0px" y="0px"
	 width="769.191px" height="769.077px" viewBox="0 0 769.191 769.077" enable-background="new 0 0 769.191 769.077"
	 xml:space="preserve">
<g>
	<g>
		<path fill="none" stroke="#FFF7AB" stroke-width="3" stroke-miterlimit="10" d="M147.715,309.336
			c-4.826,16.692-5.459,28.826-4.936,37.2c0.947,15.156,2.842-9.473,23.682-16.104s35.049-30.313,42.627-49.258
			c2.842-5.684,10.42-21.787,11.367-43.574c3.789-11.367,10.124-38.542,7.578-39.785c-1.873-0.915-19.454,8.749-38.424,31.656"/>
		<path fill="none" stroke="#FFF7AB" stroke-width="3" stroke-miterlimit="10" d="M228.033,197.815c0,0,9.394,4.657,12.314,4.026
			c0.869,0.079-4.44,15.156-4.973,19.655c0,0-3.552,23.208-7.341,32.681c-0.947,2.842-8.525,15.63-10.894,31.26
			c-1.895,2.842-2.368,7.104-6.157,8.999s-5.684,9.473-8.999,13.735c-0.474,2.842-1.895,12.314-13.262,17.051
			s-18.472,10.42-24.629,17.998s-12.906,16.518-14.209,17.051s-0.305-3.093-7.257-8.888"/>
		<path fill="none" stroke="#FFF7AB" stroke-width="3" stroke-miterlimit="10" d="M182.007,534.094
			c9.054,13.294,23.41,26.801,46.613,32.525c8.888,3.158,20.887,6.946,30.991,11.367c5.684,1.895,23.997,10.736,13.893-6.315
			c-2.526-3.789-26.966-13.893-33.06-25.892c-1.673-5.684-25.039-29.049-28.196-36.627c-0.632-2.526-13.893-16.42-17.051-18.314
			s-8.21-1.895-14.525-15.787c-1.263-5.053-10.104-10.736-11.999-12.631c-1.565-1.565-7.009-9.596-12.06-7
			c-1.063,0.546-2.108,1.564-3.096,3.21c0,0,2.525,25.893,12.63,42.312c0.868,0.694,2.11,5.015,4.52,11.177"/>
		<path fill="none" stroke="#FFF7AB" stroke-width="3" stroke-miterlimit="10" d="M155.55,455.967c0,0,3.57-6.889,7.122-9.257
			c3.552-2.368,8.644-2.785,17.169,8.197c0.829,1.156,51.348,70.662,72.188,84.24c4.421,2.841,16.735,13.577,19.261,20.208
			c1.895,3.157,9.788,7.578,16.735,10.42c2.842,1.579,10.164,12.744-11.536,9.474"/>
		<path fill="none" stroke="#FFF7AB" stroke-width="3" stroke-miterlimit="10" d="M415.592,365.955c0,0,16.104-1.895,29.365,11.367
			c3.789,4.263,31.26,12.314,40.732,35.996c0.947,1.895,10.894-3.315,18.472,2.842c3.789,3.315,17.998-5.21,16.577,8.999
			c-0.474,3.315-5.21,9.473-1.895,16.577c0,2.842-5.21,8.525-5.21,8.525s-7.578,12.788-5.21,24.155
			c0.474,3.315-5.684,40.732-26.997,53.047c-5.21,2.368-16.003,9.473-13.212,16.577c0.897,3.315-3.839,8.999-14.259,16.577
			c-4.736,2.368-55.415,16.577-51.152-1.895c0.474-5.21-25.103-43.574-63.467-63.94c-7.104-4.263-24.629-11.841-44.048-55.415
			c-2.368-6.157-7.104-25.576,4.263-31.26c5.21-3.315-11.367-15.156,8.052-30.786c3.315-2.842,4.736-8.75,25.103-8.875
			c4.263-0.598,21.787-14.333,32.207-12.438C370.597,356.009,402.804,358.851,415.592,365.955z"/>
		<path fill="none" stroke="#FFF7AB" stroke-width="3" stroke-miterlimit="10" d="M576.627,235.706
			c0.632,5.684-27.155,35.416-41.68,38.864c-6.315,2.815-11.8,12.288-14.109,23.024c-3.573,2.525-15.571,19.576-28.202,20.839
			c-5.052,1.263-11.367,18.945-49.889,13.893c-6.315-0.631-34.102-13.262-51.784-7.578c-4.42,1.895-23.997-1.263-37.259-3.157
			c-5.052-1.263-30.944-3.158-41.68-0.632c-3.158-0.631-48.626,12.631-37.891-22.103c3.157-8.21,22.734-17.473,27.786-19.788
			c5.052-2.315,29.681-16.208,17.051-50.31c-1.263-6.315-6.315-27.787,8.841-44.206c6.315-8.209,8.841-23.998,31.576-39.785
			c0,0,24.858-11.416,45.605-7.289c0.523,0.104,1.043,0.218,1.56,0.342"/>
		<path fill="none" stroke="#FFF7AB" stroke-width="3" stroke-miterlimit="10" d="M576.627,235.706c0,0,0.592,13.735-2.013,18.235
			c-0.711,1.776-22.616,23.445-29.721,28.181c-2.842,2.368-14.683,4.263-20.84,24.155c-2.368,4.263-4.736,17.051-20.84,21.313
			c-3.789,0.947-8.999,0-13.262,11.367c-0.947,4.263-26.523,12.314-51.626,3.789c-4.263-1.895-30.786-13.262-51.626-7.104
			c-3.789-0.474-20.84-1.505-38.838-2.41c-4.736-1.379-20.366-3.831-31.26,0c-2.842,1.463-50.793,6.673-44.105-19.377"/>
		<path fill="none" stroke="#FFF7AB" stroke-width="3" stroke-miterlimit="10" d="M608.105,451.909
			c-6.535,17.829-17.345,39.791-31.421,60.398c-4.794,6.157-14.267,21.787-14.74-4.263c-0.947-5.684,2.01-17.524,14.74-34.102
			c3.731-5.21,9.889-14.683,4.205-38.838c-1.421-6.157-4.263-34.575-13.735-53.521c-4.263-5.21-11.367-8.75-19.419-13.138
			c-8.052-4.387-21.787-4.86-8.999-26.174c0.947-4.736,3.789-14.209,10.42-16.577c2.842-1.421,3.789-24.155,19.419-30.313
			c5.684-1.895,11.841-3.315,23.208-13.262c0,0,6.631,0.947,9.473,3.789c1.546,1.546,6.876,11.327,11.264,26.202"/>
		<path fill="none" stroke="#FFF7AB" stroke-width="3" stroke-miterlimit="10" d="M575.565,251.432c0,0,14.324,14.586,16.218,30.69"
			/>
		<path fill="none" stroke="#FFF7AB" stroke-width="3" stroke-miterlimit="10" d="M491.756,576.753
			c43.424-23.865,65.294-54.152,65.294-54.152"/>
		<path fill="none" stroke="#FFF7AB" stroke-width="3" stroke-miterlimit="10" d="M283.381,579.845c0,0,47.655,27.029,112.584,24.08
			"/>
		<path fill="none" stroke="#FFF7AB" stroke-width="3" stroke-miterlimit="10" d="M149.884,360.271c0,0-7.609,52.975,10.01,89.086"
			/>
		<path fill="none" stroke="#FFF7AB" stroke-width="3" stroke-miterlimit="10" d="M238.325,201.741
			c0,0,58.999-47.057,111.976-49.765"/>
		<path fill="none" stroke="#FFF7AB" stroke-width="3" stroke-miterlimit="10" d="M568.575,295.384c0,0-14.209-3.552-26.523,20.603
			c-1.421,4.736-2.605,9.947-15.393,23.445c-2.605,3.315-10.894,17.761,3.789,31.971c3.552,0.947,37.654,10.656,38.127,55.651
			c0.474,10.894,14.367,38.838-11.525,59.204c-3.631,4.736-11.683,43.152,8.131,36.021"/>
		<path fill="none" stroke="#FFF7AB" stroke-width="3" stroke-miterlimit="10" d="M492.735,123.613c0,0-71.114,35.007-66.091,39.154
			c18.371,15.168,20.208,40.732,21.155,45.785c3.157,32.838,30.628,28.102,32.523,29.049c15.788-4.421,20.524,0.947,23.05,2.21
			c16.735,7.579,25.576,1.895,27.155,0c5.052-7.894,9.789-3.789,11.683-4.106c11.999,1.894,9.473-5.367,11.683-5.367
			s8.525-0.947,9.789,2.842c3.473,9.789,10.104,2.525,10.104,2.525l12.021-113.355l-44.658,15.787v-37.258l-49.339,22.734
			L474.53,86.038l-75.51,58.099"/>
		<path fill="none" stroke="#FFF7AB" stroke-width="3" stroke-miterlimit="10" d="M542.999,138.138c0,0,7.865,86.71,9.971,92.968"/>
		<path fill="none" stroke="#FFF7AB" stroke-width="3" stroke-miterlimit="10" d="M400.378,143.272c0,0,8.109,1.97,7.873,6.469
			c0,3.079,4.5,8.999,11.367,4.5c1.421-1.658,8.904-2.411,12.03,2.82"/>
		
			<line fill="none" stroke="#FFF7AB" stroke-width="3" stroke-miterlimit="10" x1="489.163" y1="161.188" x2="464.534" y2="182.659"/>
		
			<line fill="none" stroke="#FFF7AB" stroke-width="3" stroke-miterlimit="10" x1="519.791" y1="198.763" x2="512.213" y2="215.182"/>
		
			<line fill="none" stroke="#FFF7AB" stroke-width="3" stroke-miterlimit="10" x1="559.576" y1="195.289" x2="560.523" y2="209.498"/>
		
			<line fill="none" stroke="#FFF7AB" stroke-width="3" stroke-miterlimit="10" x1="449.062" y1="127.718" x2="441.168" y2="138.138"/>
		<path fill="none" stroke="#FFF7AB" stroke-width="3" stroke-miterlimit="10" d="M445.115,108.957c0,0,7.42,15.445,16.893,7.631
			c2.131-1.421,11.13-4.5,16.34,0.947c1.184,1.658,9.789,2.712,10.815-1.486"/>
		<path fill="none" stroke="#FFF7AB" stroke-width="3" stroke-miterlimit="10" d="M486.495,126.726c0,0-8.384,23.49,15.535,19.227
			c4.973-1.184,12.551-6.631,17.761,4.973c0.947,2.131,4.026,7.299,8.289,6.136c2.368-1.162,7.815-2.189,7.815,4.126
			c0,6.316,5.706,2.883,9.602,3.652"/>
		<path fill="none" stroke="#FFF7AB" stroke-width="3" stroke-miterlimit="10" d="M544.109,150.167c0,0,14.756,0.005,11.441,6.894
			c-0.947,1.916-0.71,9.731,8.762,10.205c2.605-0.237,6.868-1.421,9.709,3.552s1.064,5.062,6.453,6.319"/>
		<path fill="none" stroke="#FFF7AB" stroke-width="3" stroke-miterlimit="10" d="M166.461,268.86c0,0-10.736,22.419-14.525,29.997"
			/>
		<path fill="none" stroke="#FFF7AB" stroke-width="3" stroke-miterlimit="10" d="M184.143,239.18c0,0-11.683,17.367-13.893,20.84"
			/>
		<path fill="none" stroke="#FFF7AB" stroke-width="3" stroke-miterlimit="10" d="M173.723,222.444l15.472,9.157
			c0,0,10.104,8.842,0,7.578s-9.789-4.613-15.472-8.306s-0.316-10.955,0-12.534s6.315-1.579,6.315-1.579s1.579-5.368,0.631-8.525
			s12.079,0.138,3.473-10.42c-1.737-2.131-0.474-8.367-2.605-12.63c-0.789-0.79-8.368-12.236-16.577-3.395
			c-1.105,0.553-3.338,5.68-10.972-0.868c-4.97-4.263-9.548,0.316-10.337,1.658c-0.79,1.341,0.316,6.157-6.157,7.657
			c-6.157,2.052-4.579,5.525-4.105,8.289c0.079,1.263,2.842,5.13-7.341,3.789c-1.026,0.079-8.608-1.895-4.463,8.762
			c0.592,2.013,3.197,4.421,3.197,4.421s7.579-4.737,11.052,2.684s8.051-1.578,10.262,0.158s3,5.368,8.841,7.104
			s0.79,8.841,5.052,9.157c4.263,0.315,12.719-2.33,13.992-2.358"/>
		<path fill="none" stroke="#FFF7AB" stroke-width="3" stroke-miterlimit="10" d="M159.988,234.602c0,0,3.946,10.419-0.79,12.787
			c-0.789,0.474-4.104,0-3.473,5.684c-0.316,1.895,2.684,7.263-4.736,7.736c-1.737-0.315-4.263-1.894-3.789,7.263
			c-0.158,2.21-1.421,10.104-10.894,8.841c-2.053,0-15.314-1.465-18.63,0.136c-1.421-0.609-5.052-5.188-8.999-4.557
			c-1.105,0-7.894-5.209-8.367-12.472c0-2.685,2.368-5.841-1.579-10.42c-0.315-0.474-2.052-6.158,2.526-8.368
			c2.052-1.578,3.315-2.999,3.789-7.42c0.631-2.526-3.947-6.157,4.104-7.104c2.21,0,2.684-1.421,4.105-4.263
			c0.947-1.421,1.263-3.473,5.684-1.736c1.579,0.474,4.131-3.389,6.433-4.895"/>
		<path fill="none" stroke="#FFF7AB" stroke-width="3" stroke-miterlimit="10" d="M157.021,253.23l28.603,14.683
			c0,0,5.545,6.683-1.48,6.657c-2.052,0.21-5.368-1.447-8.683-3.104c-1.421-0.948-24.471-10.657-24.471-10.657"/>
		<path fill="none" stroke="#FFF7AB" stroke-width="3" stroke-miterlimit="10" d="M101.008,255.128c0,0-5.355,6.234-12.223,4.892
			c-1.895-0.632-2.605,1.974-2.131,5.525c0.71,1.658,0.237,6.868-4.026,6.395c-0.71,0-3.315,2.656-2.131,7.13
			c0.474,1.395,0.474,3.29-2.368,6.368c0,0.71-3.552,8.052,0,14.446c1.184,1.658,3.789,2.369,8.289,2.842
			c2.368,0.236,8.052,0.473,6.394,7.578c0,2.368,0.527,10.657,8.197,5.447c2.46-1.421,15.011-4.973,16.906-12.788
			c0.947-0.947-0.327-3.236,2.442-4.104c2.768-0.869,4.663-3.474,4.426-8.684s0-2.334,1.658-3.891
			c1.658-1.556,3.631-3.021,2.842-9.235"/>
		<path fill="none" stroke="#FFF7AB" stroke-width="3" stroke-miterlimit="10" d="M126.439,286.283c0,0,23.129,13.838,27.076,15.653
			c1.342,0.79,9.236,5.998-2.526,7.261c-2.29-0.315-9.094-4.262-9.094-4.262l-18.181-8.827"/>
		<path fill="none" stroke="#FFF7AB" stroke-width="3" stroke-miterlimit="10" d="M133.623,470.944
			c-0.553-0.79-17.683,7.894-17.683,7.894l6,48.311c0,0,4.579,2.375,9.167,4.706c4.265,2.168,8.538,4.299,9.146,4.451
			c1.263,0.316,4.065-20.188,3.473-20.524c-0.592-0.336-12.156,13.498-12.946,13.3c-0.79-0.197,6.729-17.958,6.315-18.195
			c-0.415-0.236-12.078,11.249-12.906,10.42c-0.829-0.829,15.393-18.59,14.564-19.656s-16.222,6.986-16.695,6.157
			s15.511-15.156,15.274-15.986c-0.237-0.828-13.794,5.033-14.328,3.671c-0.533-1.362,14.328-12.907,14.091-13.854
			s-16.281,5.27-16.577,4.145S134.175,471.734,133.623,470.944z"/>
		<path fill="none" stroke="#FFF7AB" stroke-width="3" stroke-miterlimit="10" d="M131.728,534.411l-36.627,1.898l-35.049-30.948
			c0,0,2.21-34.259,3.789-34.417s7.578,8.841,6.631,35.364c-0.316,5.052,9.315-18.156,10.104-17.998
			c0.789,0.158-0.947,30.125-0.947,30.125s11.999-15.754,12.946-14.809c0.947,0.944-2.21,22.89-2.21,22.89
			s12.788-8.899,13.893-8.081c1.105,0.819-1.263,13.765-1.263,13.765s7.42-9.569,8.841-9.6c1.421-0.03,4.104,9.284,4.104,9.284
			l4.105-3.157L131.728,534.411z"/>
		<path fill="none" stroke="#FFF7AB" stroke-width="3" stroke-miterlimit="10" d="M133.307,536.31l-1.579,0.86l-15.788,8.608
			l-21.787,6.631c0,0-14.841,27.471-19.577,34.417s7.341,26.682,11.367,26.523s-3.789-37.334-1.895-38.52s8.999,8.113,10.42,7.133
			c1.421-0.979-0.947-17.792,1.421-18.503c2.368-0.71,3.71,6.474,5.526,4.421s-3.789-13.184-1.579-13.894
			c2.21-0.71,5.684,6.272,7.262,6.57c1.579,0.298,5.684-10.042,5.684-10.042L133.307,536.31z"/>
		<path fill="none" stroke="#FFF7AB" stroke-width="3" stroke-miterlimit="10" d="M137.096,539.779
			c-1.658-1.185-21.156,16.735-21.156,16.735s3.158,38.521,2.842,46.416c-0.316,7.894,18.55,18.156,20.208,17.05
			c1.658-1.105-16.104-25.26-16.104-25.26s13.578-1.026,13.894-3.474s-15.788-9.284-15.788-9.284s13.341-1.08,13.894-2.45
			s-13.578-12.579-13.578-12.579s14.209-3.315,14.525-5.052s-12.946-6.631-12.946-6.631s12.551-2.209,14.209-4.104
			s-3.789-3.789-3.789-3.789S138.753,540.964,137.096,539.779z"/>
		<path fill="none" stroke="#FFF7AB" stroke-width="3" stroke-miterlimit="10" d="M141.201,543.577c0,0,14.209,29.36,17.051,40.729
			c0.631,1.578,32.207,4.575,32.207,4.575s17.13-7.465,17.051-9.131s-28.181,4.052-29.997,2.332s9.394-4.808,8.525-7.193
			c-0.869-2.385-22.339,6.741-23.682,4.654c-1.342-2.088,15.472-12.432,15.472-14.488s-16.182,5.6-17.682,3.782
			s10.104-9.633,10.104-11.056c0-1.422-17.682,0.473-18.313-1.896c-0.632-2.37,16.814-4.655,16.735-5.997
			c-0.079-1.343-22.103-6.311-22.103-6.311H141.201z"/>
		<path fill="none" stroke="#FFF7AB" stroke-width="3" stroke-miterlimit="10" d="M141.568,531.966c0,0,15.677,0.62,37.839-25.974
			c5.526-6.631,15.945,11.841,12.314,16.104s-18.866,22.3-39.587,20.051"/>
		<path fill="none" stroke="#FFF7AB" stroke-width="3" stroke-miterlimit="10" d="M175.788,510.163c0,0,12.716,11.508,13.121,15.115
			"/>
		<path fill="none" stroke="#FFF7AB" stroke-width="3" stroke-miterlimit="10" d="M169.777,516.334c0,0,10.397,9.081,12.571,15.173"
			/>
		<path fill="none" stroke="#FFF7AB" stroke-width="3" stroke-miterlimit="10" d="M161.654,523.188c0,0,9.212,10.732,11.154,14.727"
			/>
		<path fill="none" stroke="#FFF7AB" stroke-width="3" stroke-miterlimit="10" d="M153.517,528.29
			c3.59,4.384,8.367,9.288,10.537,12.993"/>
		
			<line fill="none" stroke="#FFF7AB" stroke-width="3" stroke-miterlimit="10" x1="146.42" y1="531.148" x2="153.517" y2="542.266"/>
		<g>
			<polygon fill="none" stroke="#FFF7AB" stroke-width="3" stroke-miterlimit="10" points="638.041,352.404 639.847,370.363 
				610.566,368.921 610.48,356.86 			"/>
			<path fill="none" stroke="#FFF7AB" stroke-width="3" stroke-miterlimit="10" d="M605.393,343.69l45.282-10.956l37.474,26.401
				l-33.021,33.653l-45.216-8.471C609.913,384.317,608.527,354.14,605.393,343.69z"/>
			<polyline fill="none" stroke="#FFF7AB" stroke-width="3" stroke-miterlimit="10" points="650.664,333.236 646.534,330.472 
				650.465,326.701 695.714,357.784 657.074,399.946 651.532,396.566 655.121,393.123 			"/>
			<polygon fill="none" stroke="#FFF7AB" stroke-width="3" stroke-miterlimit="10" points="651.108,396.809 641.074,432.528 
				644.19,435.774 657.074,399.946 			"/>
			
				<line fill="none" stroke="#FFF7AB" stroke-width="3" stroke-miterlimit="10" x1="695.714" y1="357.784" x2="678.093" y2="399.963"/>
			
				<line fill="none" stroke="#FFF7AB" stroke-width="3" stroke-miterlimit="10" x1="670.806" y1="412.206" x2="644.19" y2="435.774"/>
			<path fill="none" stroke="#FFF7AB" stroke-width="3" stroke-miterlimit="10" d="M674.239,400.051c0,0-5.091,3.244-6.322,6.065
				c-1.231,2.822-1.129,6.007,0.88,6.049c2.009,0.041,14.663,3.652,14.663,3.652l2.298-5.815l-1.622-7.505L674.239,400.051z"/>
			
				<line fill="none" stroke="#FFF7AB" stroke-width="3" stroke-miterlimit="10" x1="685.758" y1="410.002" x2="667.917" y2="406.116"/>
			<polygon fill="none" stroke="#FFF7AB" stroke-width="3" stroke-miterlimit="10" points="664.763,352.775 659.343,353.626 
				660.198,358.167 664.827,358.429 			"/>
			<path fill="none" stroke="#FFF7AB" stroke-width="3" stroke-miterlimit="10" d="M665.558,360.901l-5.524-0.17
				c0,0,0.123,4.915,0.455,5.034c0.332,0.118,5.951,0.852,5.538,0.702C665.613,366.318,665.558,360.901,665.558,360.901z"/>
			<polygon fill="none" stroke="#FFF7AB" stroke-width="3" stroke-miterlimit="10" points="658.02,360.914 652.492,360.966 
				652.458,365.264 657.786,366.826 			"/>
			<polygon fill="none" stroke="#FFF7AB" stroke-width="3" stroke-miterlimit="10" points="657.89,353.708 652.899,354.777 
				652.479,358.899 657.644,358.867 			"/>
			
				<line fill="none" stroke="#FFF7AB" stroke-width="3" stroke-miterlimit="10" x1="609.913" y1="384.317" x2="610.06" y2="400.203"/>
			<path fill="none" stroke="#FFF7AB" stroke-width="3" stroke-miterlimit="10" d="M638.72,402.624c0,0,0.507,5.83,0.26,5.658
				c-0.248-0.172-5.88-1.168-5.88-1.168l-0.82-4.875L638.72,402.624z"/>
			<polygon fill="none" stroke="#FFF7AB" stroke-width="3" stroke-miterlimit="10" points="637.908,409.475 633.277,408.666 
				632.453,412.083 637.06,414.063 			"/>
			<path fill="none" stroke="#FFF7AB" stroke-width="3" stroke-miterlimit="10" d="M629.072,421.728c0,0,5.239,5.804-1.631,8.677
				c-1.226-0.137,5.873,12.964-4.321,19.898c-1.035,1.43-13.728,9.179-22.106-6.166c-0.278-2.113,5.916-20.745,7.869-39.688
				c0,0-0.494-8.496,9.506-3.432C621.32,402.362,636.931,408.825,629.072,421.728l14.133,3.217"/>
			<polyline fill="none" stroke="#FFF7AB" stroke-width="3" stroke-miterlimit="10" points="627.271,406.511 630.448,406.787 
				630.202,402.469 625.146,401.945 624.9,404.595 			"/>
			<path fill="none" stroke="#FFF7AB" stroke-width="3" stroke-miterlimit="10" d="M630.138,337.67l-3.279-3.418
				c0,0,8.479-7.808,0.56-16.29c-1.54-1.148-15.94-12.165-23.099-0.7c-0.13,0.89-2.134,3.25-2.262,6.764
				c-0.128,3.514-3.811,0.703-3.078,3.063c0.732,2.36,2.873,6.872,5.521,8.377c2.649,1.505-2.799,8.483,0.891,8.225"/>
		</g>
		<path fill="none" stroke="#FFF7AB" stroke-width="3" stroke-miterlimit="10" d="M360.334,412.214c0,0,1.579,12.313,2.842,17.682
			c0.316,2.842,6.631,12.946,8.21,0c0.947-4.104-1.263-15.787-1.263-15.787s5.683-1.264,10.104,0.947
			c3.158,0.947,2.842-1.962,4.736-5.875c0.947-2.334,5.368-0.823,7.263,0c0.631,0.823,5.368-2.777,6.631-6.818
			c0-1.515-3.474-7.515-3.474-7.515s-0.315-11.999,2.21-11.051c1.263-0.316-4.105-5.053-8.525-6.631
			c-2.526-0.948-9.157,0.631-9.473-6c0-3.473-5.052-8.21-10.104-4.736c-1.263,0.316-4.736-1.214-4.736-1.214s-4.421-3.108-6,0
			c-1.579,3.109,1.895,2.793-1.579,3.109s-2.842-4.104-5.368-2.525c-2.526,1.578-3.789-1.331-6.315,2.649
			c-2.526,3.981-2.842,4.612-6.947,4.929c-1.895,0-6.946,0.315-6.946,4.42c-0.632,1.264-0.632,3.474-3.158,5.368
			c-1.579,0.632-2.842,2.526-1.263,6.631s1.579,5.683,1.263,8.841c0,0.632,0,5.872,6.631,3.726c2.842,0.379,0.947,6.818,0.947,6.818
			s4.42,3.981,9.473,3.034c1.895-0.316-0.316,7.578,7.262,3.789C355.914,414.424,360.334,412.214,360.334,412.214z"/>
		<path fill="none" stroke="#FFF7AB" stroke-width="3" stroke-miterlimit="10" d="M360.334,412.214c0,0,6.281,7.123,9.87,2.337"/>
		<path fill="none" stroke="#FFF7AB" stroke-width="3" stroke-miterlimit="10" d="M304.13,210.762c0,0-5.683,10.42-3.473,15.788
			c0.947,2.525-0.39,6.314-0.511,12.63c0.511,2.21,12.193,11.683-1.7,20.84"/>
		<path fill="none" stroke="#FFF7AB" stroke-width="3" stroke-miterlimit="10" d="M241.611,260.02c0,0-14.615,14.208-12.991,23.997
			c0.045,2.526,0.361,2.496-3.428,7.09c-1.895,2.699-3.789,4.277-4.736,11.224c-0.631,2.211,1.895,3.79-5.999,8.526
			c-2.21,2.21-10.42,13.262-10.42,13.262"/>
		<path fill="none" stroke="#FFF7AB" stroke-width="3" stroke-miterlimit="10" d="M573.018,275.491c0,0-7.284,8.052-12.968,9.473
			s-10.73,4.369-12.707,10.236"/>
		<path fill="none" stroke="#FFF7AB" stroke-width="3" stroke-miterlimit="10" d="M516.002,343.697c0,0-14.592,13.52,5.966,35.176"
			/>
		<path fill="none" stroke="#FFF7AB" stroke-width="3" stroke-miterlimit="10" d="M553.893,414.209c0,0,3.576,19.949,6.288,25.159
			c1.764,3.789-6.129,3.209-3.13,14.156c1.105,3.842,4.894,13.789-6,22.314"/>
		<path fill="none" stroke="#FFF7AB" stroke-width="3" stroke-miterlimit="10" d="M288.658,340.379c0,0,13.262,7.578,23.208,3.315
			c3.315,0.474,18.945-1.48,24.155,2.812c5.21,4.292,19.734,0.445,24.313,0"/>
		<path fill="none" stroke="#FFF7AB" stroke-width="3" stroke-miterlimit="10" d="M288.658,456.577c0,0,9.315,1.263,6.789,15.472
			c-0.316,1.895,0.474,5.211,7.736,4.421c0.947-0.316,5.999,2.999,6.789,13.419"/>
		<path fill="none" stroke="#FFF7AB" stroke-width="3" stroke-miterlimit="10" d="M357.335,522.601c0,0,13.262,10.311,12.788,15.283
			c0,0.947-0.947,4.263,5.92,5.446c1.184,1.185,3.789,0,7.578,11.841"/>
		<path fill="none" stroke="#FFF7AB" stroke-width="3" stroke-miterlimit="10" d="M466.744,438.421c0,0,12.788,9.315,10.42,18.156
			c-0.474,4.104-6.631,6.716,5.21,11.094c2.368,2.957,8.999,15.271,0,26.639c-1.895,2.842-7.578,8.525-8.052,13.735
			c0,3.315-13.735,16.137-17.051,15.409c-3.315-0.727-7.578,2.953-10.42,1.824c-2.842-1.13-7.578-5.833-10.894-1.824
			c-3.315,4.01-13.487-0.784-15.743-5.019c-0.834-2.339-17.885-18.916-8.886-42.598c1.895-6.631,5.664-13.318-2.615-30.814
			c-0.227-5.182-3.294-27.086,11.501-36.736c1.534-3.968,4.032-10.506,27.412-3.921c5.855,3.269,12.013,13.688,15.328,18.425
			C464.85,424.212,467.218,431.316,466.744,438.421z"/>
		<path fill="none" stroke="#FFF7AB" stroke-width="3" stroke-miterlimit="10" d="M466.744,438.421c0,0-10.42-1.895-9.709-11.367
			c0-2.131-8.289-15.945-16.814-14.84c-1.658-0.316-22.261-8.131-21.787,17.208c0.237,3.789,0.71,13.735,4.973,21.55
			c0,2.842,4.263,12.789-1.658,26.524c-1.421,4.5-6.868,19.892-0.474,26.524c2.131,1.657,6.631,2.368,7.815,8.288
			c0.474,3.315,1.184,8.796,6.868,11.146"/>
		<g>
			<path fill="none" stroke="#FFF7AB" stroke-width="3" stroke-miterlimit="10" d="M205.122,393.079c0,0-9.871-21.318,7.71-35.161
				c1.512-1.365,10.487-6.912,24.236-4.383c2.725,0.841,15.419,2.654,11.337,12.427c-0.739,2.262-11.156,20.586-6.611,31.038
				c0.202,1.499-0.613,12.958-10.271,12.779C229.622,409.604,213.22,404.796,205.122,393.079z"/>
			<path fill="none" stroke="#FFF7AB" stroke-width="3" stroke-miterlimit="10" d="M240.076,354.326c0,0-1.221,4.328-2.678,4.616
				c-1.458,0.286-2.037-2.872-3.396-3.17c-1.359-0.297-1.043,3.651-2.533,3.324c-1.489-0.326-1.95-4.306-3.027-3.815
				c-1.078,0.492,0.074,3.532-0.938,4.28c-1.013,0.747-4.726-4.431-5.944-3.85c-1.219,0.582-0.665,5.794-1.37,6.247
				c-0.705,0.45-4.238-3.491-4.929-3.028c-0.691,0.462,2.373,5.953,1.436,6.853c-0.938,0.901-8.717-0.987-9.091,0.053
				c-0.374,1.039,7.456,7.241,7.335,8.124c-0.122,0.882-9.529,1.005-9.541,2.273c-0.014,1.269,7.431,4.355,8.153,5.484
				c0.723,1.128-8.641,5.135-8.703,5.97s9.514,0.147,9.755,1.049s-6.048,6.917-4.992,7.633c1.055,0.716,9.114-1.759,9.938-1.094
				c0.823,0.666-2.35,5.182-1.692,6.054c0.658,0.871,7.874-1.91,8.474-1.051c0.6,0.858-1.215,4.158-1.04,4.742
				c0.175,0.583,4.874,0.16,5.447,0.588c0.573,0.429-1.202,2.162-1.202,2.162"/>
			<path fill="none" stroke="#FFF7AB" stroke-width="3" stroke-miterlimit="10" d="M236.356,407.081c0,0-2.869-1.842-2.857-2.445
				c0.011-0.604,3.568-0.793,3.669-1.256c0.101-0.463-5.2-3.929-4.957-4.481c0.242-0.553,5.269-1.087,5.351-1.736
				c0.081-0.647-5.986-4.767-6.013-5.197c-0.027-0.43,5.969-1.237,6.287-2.136c0.319-0.9-5.96-4.884-5.961-5.43
				c-0.001-0.546,6.241-1.652,6.503-2.569c0.262-0.917-5.043-3.535-4.93-4.601c0.112-1.067,6.675-1.143,7.045-1.729
				c0.372-0.585-3.974-4.266-3.905-4.857c0.069-0.591,7.33-1.363,7.419-1.768c0.088-0.405-4.475-4.194-4.188-4.676
				c0.288-0.481,5.81-0.786,6.251-1.417c0.441-0.631-2.884-2.33-2.923-2.703c-0.039-0.372,3.709-0.884,3.709-0.884"/>
			<circle fill="none" stroke="#FFF7AB" stroke-width="3" stroke-miterlimit="10" cx="200.42" cy="398.594" r="2.723"/>
			<circle fill="none" stroke="#FFF7AB" stroke-width="3" stroke-miterlimit="10" cx="211.63" cy="350.139" r="2.723"/>
			<path fill="none" stroke="#FFF7AB" stroke-width="3" stroke-miterlimit="10" d="M233.689,413.164c0,0-27.678-9.449-29.595-10.976
				c-0.207-0.166-5.758,3.041-7.814-3.895c-0.379-0.205-18.945-12.277-30.113-28.788c-0.995-2.642-2.243-3.037,1.217-5.551
				c1.078-0.491,18.85-10.776,39.455-13.531c0.282-0.181,0.085-3.496,4.995-3.875c0.698,0.032,3.098-0.412,3.569,2.965
				c0.066,0.257,8.268-1.217,31.425,3.74"/>
			<path fill="none" stroke="#FFF7AB" stroke-width="3" stroke-miterlimit="10" d="M196.016,393.144
				c0,0-13.095-13.452-15.877-17.423c-2.555-4.379-7.59-6.572,2.773-11.817c3.54-1.669,14.862-8.074,21.678-9.853"/>
		</g>
		<path fill="none" stroke="#FFF7AB" stroke-width="3" stroke-miterlimit="10" d="M223.371,430.228c0,0,11.333,0.704,17.263-8.893"
			/>
		<path fill="none" stroke="#FFF7AB" stroke-width="3" stroke-miterlimit="10" d="M254.108,410.735c0,0,12.953-12.836,9.445-37.419"
			/>
		<path fill="none" stroke="#FFF7AB" stroke-width="3" stroke-miterlimit="10" d="M255.726,340.48c0,0,9.708,10.708,5.473,15.233"/>
		<g>
			<path fill-rule="evenodd" clip-rule="evenodd" fill="none" stroke="#FFF7AB" stroke-width="3" stroke-miterlimit="10" d="
				M376.548,218.404c0.46,0,0.92,0,1.38,0c0.064,0.01,0.127,0.026,0.191,0.032c0.38,0.033,0.761,0.05,1.138,0.097
				c1.412,0.175,2.793,0.483,4.141,0.938c1.65,0.558,3.181,1.336,4.544,2.43c1.338,1.075,2.456,2.351,3.436,3.753
				c1.065,1.525,1.777,3.211,2.251,5.003c0.527,1.991,0.754,4.025,0.861,6.074c0.034,0.656,0.036,1.313,0.055,1.97
				c0.002,0.098,0.019,0.195,0.028,0.292c0,0.894,0,1.788,0,2.682c-0.011,0.071-0.028,0.142-0.032,0.212
				c-0.009,0.184-0.003,0.368-0.018,0.552c-0.085,1.042-0.246,2.074-0.484,3.092c-0.43,1.837-1.074,3.599-1.897,5.293
				c-1.555,3.198-3.466,6.172-5.678,8.953c-0.967,1.217-2.02,2.354-3.202,3.367c-0.897,0.768-1.855,1.445-2.935,1.937
				c-1.007,0.458-2.056,0.719-3.171,0.653c-0.973-0.058-1.905-0.294-2.797-0.686c-1.184-0.52-2.232-1.249-3.207-2.09
				c-1.273-1.101-2.39-2.349-3.421-3.673c-1.65-2.118-3.13-4.352-4.514-6.651c-0.913-1.517-1.716-3.088-2.349-4.744
				c-0.649-1.697-1.094-3.44-1.214-5.258c-0.009-0.136-0.044-0.269-0.067-0.403c0-0.539,0-1.078,0-1.617
				c0.023-0.208,0.058-0.415,0.065-0.622c0.053-1.348,0.176-2.688,0.362-4.022c0.228-1.621,0.556-3.221,1.01-4.793
				c0.491-1.703,1.126-3.346,1.981-4.902c1.192-2.169,2.809-3.94,4.912-5.254c2.569-1.606,5.389-2.405,8.4-2.579
				C376.396,218.434,376.472,218.416,376.548,218.404z M375.348,255.116c-0.092-0.364-0.176-0.693-0.259-1.022
				c-0.379-1.515-0.951-2.948-1.785-4.272c-1.307-2.074-3.076-3.643-5.228-4.793c-1.795-0.96-3.714-1.551-5.706-1.926
				c-0.053-0.01-0.11-0.001-0.164-0.001c-0.004,0.028-0.008,0.041-0.007,0.054c0.179,1.346,0.483,2.661,0.981,3.927
				c1.17,2.98,3.174,5.199,6.062,6.601c1.662,0.806,3.424,1.248,5.262,1.397C374.777,255.102,375.053,255.104,375.348,255.116z
				 M392.212,243.137c-0.076,0-0.128-0.003-0.18,0c-0.341,0.022-0.682,0.042-1.022,0.071c-1.117,0.093-2.212,0.302-3.281,0.64
				c-2.766,0.875-4.963,2.509-6.549,4.944c-1.12,1.721-1.807,3.61-2.141,5.632c-0.034,0.205-0.053,0.412-0.081,0.634
				c0.114-0.021,0.203-0.038,0.292-0.053c0.487-0.078,0.975-0.146,1.459-0.235c1.635-0.305,3.176-0.867,4.605-1.726
				c1.825-1.096,3.287-2.566,4.452-4.339c1.106-1.685,1.87-3.522,2.428-5.451C392.204,243.223,392.204,243.19,392.212,243.137z"/>
			<path fill-rule="evenodd" clip-rule="evenodd" fill="none" stroke="#FFF7AB" stroke-width="3" stroke-miterlimit="10" d="
				M372.665,264.113l-5.285,7.131c0,0-2.198,4.309,2.643,1.587l-0.249,9.75c0,0-1.487,10.883,5.542,1.133
				c1.587-1.133,4.762-0.227,4.762-0.227"/>
			<path fill-rule="evenodd" clip-rule="evenodd" fill="none" stroke="#FFF7AB" stroke-width="3" stroke-miterlimit="10" d="
				M383.137,264.113l5.285,7.131c0,0,2.197,4.309-2.643,1.587l0.249,9.75c0,0,1.486,10.883-5.542,1.133
				c-1.587-1.133-4.762-0.227-4.762-0.227"/>
		</g>
		<path fill="none" stroke="#FFF7AB" stroke-width="3" stroke-miterlimit="10" d="M463.744,612.674c0,0,37.373-21,22.373-24.667
			c-1.333-0.667-24.667,0.667-36.333,5c-3.667-0.333-22.667,10-29.667,5c-4-1-5.333-0.162-10.333,2.252
			c-2.667,2.081-11.333,4.747-8.333,14.414c2,3.333,6.333,4.333,11,5.333c1.667-0.333,15,1.333,21.667,0"/>
		<path fill="none" stroke="#FFF7AB" stroke-width="3" stroke-miterlimit="10" d="M489.2,589.683c0,0,5.802-13.342,0.468-16.009
			c-2-1.333-14.217-2-24.217,4.333c-1.667,1.333-6.884,3.581-12.109,2.291c-3.225-0.291-11.558,0.709-17.558,4.376
			c-3,1.333-16.333,5.352-25.667,5.009c-3.333,0.324-18.766,6.776-14,14.506c1.6,2.653,4.825,8.228,4.825,8.228"/>
	</g>
	<g>
		<path fill="none" stroke="#FFF7AB" stroke-width="3" stroke-miterlimit="10" d="M461.606,683.204c0,0,0.344-6.697-8.448-7.78
			s-12.523,3.373-11.595,8.187"/>
		<g>
			<path fill="none" stroke="#FFF7AB" stroke-width="3" stroke-miterlimit="10" d="M461.923,626.619c0,0,1.558-9.439,1.792-10.774
				c-0.07,0.043,3.567-9.501-4.766-12.001c-1.5-0.667-13.667-2.667-18.5,0c-1.333,0.5-9.5,4.167-7.333,12.667
				c0.5,1.333,8.843,15.234,8.843,15.234"/>
			<path fill="none" stroke="#FFF7AB" stroke-width="3" stroke-miterlimit="10" d="M452.367,630.177"/>
			<path fill="none" stroke="#FFF7AB" stroke-width="3" stroke-miterlimit="10" d="M448.342,630.778"/>
			<path fill="none" stroke="#FFF7AB" stroke-width="3" stroke-miterlimit="10" d="M477.951,646.174c0,0,30.333-14.166-1.833-16.666
				c-1.417-0.167-12.965,1.091-12.965,1.091"/>
			<path fill="none" stroke="#FFF7AB" stroke-width="3" stroke-miterlimit="10" d="M478.122,646.092c0,0-8.254,6.165-28.171,10.332
				c-0.833,0.25-9.667,3.834-21.083,2.167c-0.833-0.167-9.25-1.167-11.417-2.5c-0.667-0.667-5.916-0.917-2.083-7.917
				c0.083-0.583,1.916-4.5,8.333-7.75c0.75-0.416,14.077-5.133,19.434-6.402"/>
			<path fill="none" stroke="#FFF7AB" stroke-width="3" stroke-miterlimit="10" d="M463.807,628.236c0,0,12.435-2.104,24.685,0
				c1.75,0.104,10.875,0.854,9.625,13.604c-0.25,1.25-0.023,24.5-16.449,33.625c-1.426,0.875-29.426,18.25-56.301,2
				c-0.75-0.875-22.875-11.456-11.875-32.478c0.875-1.272,10.161-8.822,28.468-13.244"/>
			<path fill="none" stroke="#FFF7AB" stroke-width="3" stroke-miterlimit="10" d="M494.626,659.681c0,0-9.509,6.283-10.259-3.841
				c0.188-0.624,1.646-12.101,13.823-14.925"/>
			<path fill="none" stroke="#FFF7AB" stroke-width="3" stroke-miterlimit="10" d="M472.459,666.341
				c-4.676,3.624-11.074,0.312-10.5-3.5c0.345-2.666,3.783-3.81,3.783-3.81s2.55-1.489,6.717,2.577
				C473.326,662.298,475.326,664.006,472.459,666.341z"/>
			<path fill="none" stroke="#FFF7AB" stroke-width="3" stroke-miterlimit="10" d="M482.837,674.775c0,0-0.22-2.519-3.553-1.977
				c-0.583,0.208-3.167-0.25-4.792,2.5c0,0.625,0.543,1.956,3.646,2.124"/>
			<path fill="none" stroke="#FFF7AB" stroke-width="3" stroke-miterlimit="10" d="M439.773,668.935c0,0-3.51,1.177-6.063-1.531
				c-1.677-2.104,1.406-3.313,1.594-3.344s3.656-0.75,5.469,1.375C441.492,666.653,441.273,668.153,439.773,668.935z"/>
			<path fill="none" stroke="#FFF7AB" stroke-width="3" stroke-miterlimit="10" d="M422.046,675.26c0,0,12.258,0.019,2.883-5.606
				s-11.877-3.776-11.877-3.776"/>
			<path fill="none" stroke="#FFF7AB" stroke-width="3" stroke-miterlimit="10" d="M463.567,635.122c0,0,2.05-2.734,5.675-4.945"/>
			<path fill="none" stroke="#FFF7AB" stroke-width="3" stroke-miterlimit="10" d="M461.923,639.979c0,0,9.694-8.923,28.444-6.343"
				/>
			<path fill="none" stroke="#FFF7AB" stroke-width="3" stroke-miterlimit="10" d="M460.694,641.673c0,0,13.909-5.912,23.229,1.19"
				/>
			<path fill="none" stroke="#FFF7AB" stroke-width="3" stroke-miterlimit="10" d="M459.471,642.863c0,0,8.017-2.146,16.675,4.477"
				/>
			<path fill="none" stroke="#FFF7AB" stroke-width="3" stroke-miterlimit="10" d="M458.436,643.604c0,0,7.807,3.651,10.807,7.069"
				/>
			
				<line fill="none" stroke="#FFF7AB" stroke-width="3" stroke-miterlimit="10" x1="456.042" y1="644.64" x2="461.923" y2="653.317"/>
			<path fill="none" stroke="#FFF7AB" stroke-width="3" stroke-miterlimit="10" d="M454.873,644.883c0,0-4.396,8.893-2.951,11.113"
				/>
			<path fill="none" stroke="#FFF7AB" stroke-width="3" stroke-miterlimit="10" d="M451.854,644.883c0,0-4.82,2.025-10.685,13.71"/>
			<path fill="none" stroke="#FFF7AB" stroke-width="3" stroke-miterlimit="10" d="M451.491,644.83c0,0-16.124,7.455-19.062,14.202"
				/>
			<path fill="none" stroke="#FFF7AB" stroke-width="3" stroke-miterlimit="10" d="M451.157,644.988c0,0-30.834,3.006-35.192,10.412
				"/>
			<path fill="none" stroke="#FFF7AB" stroke-width="3" stroke-miterlimit="10" d="M448.6,645.276c0,0-23.522-4.217-30.252-1.201"/>
			<path fill="none" stroke="#FFF7AB" stroke-width="3" stroke-miterlimit="10" d="M444.581,642.15c0,0-5.567-4.263-13.609-4.317"/>
		</g>
		<path fill="none" stroke="#FFF7AB" stroke-width="3" stroke-miterlimit="10" d="M441.96,631.744c0,0,2.969,4.472,2.465,9.734
			c-0.114,2.331,6.724,4.705,11.916,2.654c4.575-1.807,7.553-6.791,7.283-8.635c-0.181-1.24-0.99-5.328-1.424-7.497
			c-0.167-0.832-0.278-1.381-0.278-1.381"/>
		<path fill="none" stroke="#FFF7AB" stroke-width="3" stroke-miterlimit="10" d="M462.386,623.823
			c0.564-2.19-1.107,1.845-0.084,4.681"/>
	</g>
</g>
</svg>
