<?xml version="1.0" encoding="utf-8"?>
<!-- Generator: Adobe Illustrator 16.0.0, SVG Export Plug-In . SVG Version: 6.00 Build 0)  -->
<!DOCTYPE svg PUBLIC "-//W3C//DTD SVG 1.1//EN" "http://www.w3.org/Graphics/SVG/1.1/DTD/svg11.dtd">
<svg version="1.1" id="圖層_1" xmlns="http://www.w3.org/2000/svg" xmlns:xlink="http://www.w3.org/1999/xlink" x="0px" y="0px"
	 width="97.667px" height="98.167px" viewBox="0 0 97.667 98.167" enable-background="new 0 0 97.667 98.167" xml:space="preserve">
<g>
	<circle fill="none" stroke="#333333" stroke-width="4" stroke-miterlimit="10" cx="48.779" cy="48.783" r="46.129"/>
	<path fill-rule="evenodd" clip-rule="evenodd" fill="#333333" d="M48.489,15.835c0.641,0,1.282,0,1.922,0
		c0.089,0.016,0.177,0.038,0.266,0.046c0.528,0.046,1.06,0.07,1.585,0.135c1.965,0.243,3.889,0.673,5.766,1.307
		c2.298,0.777,4.43,1.86,6.328,3.384c1.864,1.497,3.42,3.274,4.784,5.226c1.483,2.125,2.475,4.472,3.135,6.967
		c0.734,2.772,1.051,5.605,1.199,8.458c0.047,0.914,0.05,1.829,0.076,2.744c0.004,0.136,0.026,0.271,0.04,0.406
		c0,1.245,0,2.49,0,3.734c-0.016,0.099-0.04,0.197-0.044,0.295c-0.012,0.256-0.003,0.514-0.024,0.769
		c-0.119,1.452-0.343,2.887-0.674,4.306c-0.599,2.559-1.496,5.011-2.643,7.371c-2.165,4.454-4.827,8.595-7.907,12.468
		c-1.347,1.693-2.813,3.278-4.459,4.688c-1.25,1.069-2.583,2.013-4.087,2.698c-1.403,0.637-2.864,1.001-4.416,0.909
		c-1.356-0.081-2.653-0.41-3.896-0.956c-1.649-0.723-3.11-1.738-4.467-2.91c-1.773-1.533-3.328-3.271-4.764-5.116
		c-2.297-2.949-4.359-6.06-6.286-9.262c-1.271-2.111-2.39-4.301-3.271-6.606c-0.903-2.363-1.523-4.79-1.691-7.323
		c-0.013-0.188-0.061-0.375-0.093-0.562c0-0.751,0-1.501,0-2.252c0.032-0.289,0.08-0.578,0.091-0.867
		c0.073-1.876,0.244-3.742,0.504-5.601c0.316-2.258,0.774-4.485,1.407-6.676c0.684-2.371,1.569-4.66,2.76-6.826
		c1.66-3.021,3.912-5.488,6.839-7.317c3.578-2.237,7.505-3.35,11.698-3.591C48.276,15.877,48.382,15.853,48.489,15.835z
		 M46.817,66.962c-0.128-0.507-0.246-0.966-0.361-1.425c-0.528-2.109-1.324-4.105-2.486-5.949c-1.819-2.888-4.283-5.074-7.28-6.676
		c-2.5-1.337-5.173-2.158-7.946-2.682c-0.074-0.014-0.154-0.001-0.229-0.001c-0.005,0.039-0.011,0.057-0.009,0.075
		c0.249,1.874,0.673,3.706,1.366,5.469c1.63,4.149,4.42,7.24,8.442,9.192c2.314,1.123,4.768,1.738,7.327,1.946
		C46.022,66.941,46.407,66.945,46.817,66.962z M70.301,50.279c-0.105,0-0.178-0.004-0.25,0.001c-0.475,0.031-0.95,0.058-1.424,0.098
		c-1.555,0.131-3.08,0.421-4.568,0.892c-3.852,1.218-6.911,3.493-9.12,6.885c-1.561,2.396-2.517,5.027-2.982,7.843
		c-0.047,0.285-0.075,0.573-0.113,0.882c0.159-0.029,0.283-0.053,0.408-0.073c0.677-0.109,1.357-0.203,2.032-0.328
		c2.277-0.425,4.422-1.208,6.412-2.403c2.542-1.526,4.578-3.573,6.2-6.042c1.542-2.346,2.604-4.906,3.381-7.592
		C70.29,50.399,70.291,50.353,70.301,50.279z"/>
</g>
</svg>
