<?xml version="1.0" encoding="utf-8"?>
<!-- Generator: Adobe Illustrator 16.0.0, SVG Export Plug-In . SVG Version: 6.00 Build 0)  -->
<!DOCTYPE svg PUBLIC "-//W3C//DTD SVG 1.1//EN" "http://www.w3.org/Graphics/SVG/1.1/DTD/svg11.dtd">
<svg version="1.1" id="圖層_1" xmlns="http://www.w3.org/2000/svg" xmlns:xlink="http://www.w3.org/1999/xlink" x="0px" y="0px"
	 width="64.745px" height="65.039px" viewBox="0 0 64.745 65.039" enable-background="new 0 0 64.745 65.039" xml:space="preserve">
<g>
	<circle fill="none" stroke="#333333" stroke-width="4" stroke-miterlimit="10" cx="32.43" cy="32.572" r="29.43"/>
	<path fill-rule="evenodd" clip-rule="evenodd" fill="#333333" d="M32.245,11.552c0.409,0,0.817,0,1.227,0
		c0.057,0.009,0.112,0.024,0.17,0.028c0.337,0.03,0.676,0.045,1.011,0.086c1.254,0.155,2.481,0.429,3.679,0.834
		c1.466,0.496,2.826,1.187,4.038,2.159c1.189,0.955,2.182,2.089,3.052,3.334c0.946,1.356,1.579,2.853,2,4.445
		c0.468,1.769,0.67,3.576,0.765,5.397c0.03,0.583,0.032,1.167,0.049,1.75c0.002,0.086,0.017,0.173,0.026,0.259
		c0,0.794,0,1.588,0,2.382c-0.01,0.063-0.025,0.126-0.028,0.188c-0.008,0.164-0.002,0.328-0.016,0.491
		c-0.076,0.926-0.219,1.842-0.43,2.747c-0.382,1.633-0.955,3.197-1.686,4.703c-1.381,2.841-3.079,5.484-5.044,7.955
		c-0.859,1.081-1.795,2.092-2.845,2.991c-0.797,0.683-1.648,1.284-2.607,1.721c-0.896,0.407-1.827,0.638-2.817,0.58
		c-0.865-0.051-1.692-0.261-2.485-0.61c-1.052-0.461-1.984-1.109-2.85-1.857c-1.131-0.978-2.123-2.086-3.04-3.263
		c-1.465-1.882-2.781-3.866-4.01-5.909c-0.811-1.347-1.524-2.744-2.087-4.214c-0.576-1.507-0.972-3.057-1.079-4.672
		c-0.008-0.12-0.039-0.239-0.06-0.358c0-0.479,0-0.958,0-1.437c0.021-0.185,0.051-0.369,0.058-0.553
		c0.047-1.197,0.157-2.387,0.322-3.573c0.202-1.44,0.494-2.862,0.897-4.259c0.437-1.513,1.001-2.973,1.761-4.355
		c1.059-1.927,2.496-3.501,4.364-4.668c2.282-1.427,4.788-2.137,7.463-2.291C32.109,11.578,32.178,11.562,32.245,11.552z
		 M31.179,44.17c-0.082-0.323-0.157-0.616-0.23-0.909c-0.337-1.346-0.845-2.62-1.586-3.796c-1.161-1.842-2.733-3.237-4.645-4.259
		c-1.594-0.853-3.301-1.376-5.07-1.711c-0.047-0.009-0.098-0.001-0.146-0.001c-0.003,0.025-0.007,0.037-0.005,0.048
		c0.158,1.196,0.429,2.364,0.871,3.489c1.04,2.648,2.82,4.62,5.386,5.865c1.477,0.716,3.042,1.109,4.674,1.241
		C30.672,44.156,30.917,44.159,31.179,44.17z M46.161,33.526c-0.066,0-0.113-0.002-0.159,0c-0.303,0.021-0.606,0.038-0.908,0.063
		c-0.993,0.083-1.965,0.268-2.915,0.569c-2.458,0.777-4.409,2.228-5.818,4.393c-0.996,1.528-1.606,3.208-1.903,5.003
		c-0.03,0.182-0.047,0.366-0.072,0.563c0.102-0.019,0.181-0.034,0.26-0.047c0.432-0.069,0.866-0.129,1.296-0.209
		c1.453-0.271,2.822-0.77,4.091-1.533c1.622-0.974,2.92-2.28,3.956-3.855c0.983-1.497,1.662-3.13,2.157-4.844
		C46.154,33.603,46.154,33.573,46.161,33.526z"/>
</g>
</svg>
