<?xml version="1.0" encoding="utf-8"?>
<!-- Generator: Adobe Illustrator 16.0.0, SVG Export Plug-In . SVG Version: 6.00 Build 0)  -->
<!DOCTYPE svg PUBLIC "-//W3C//DTD SVG 1.1//EN" "http://www.w3.org/Graphics/SVG/1.1/DTD/svg11.dtd">
<svg version="1.1" id="圖層_1" xmlns="http://www.w3.org/2000/svg" xmlns:xlink="http://www.w3.org/1999/xlink" x="0px" y="0px"
	 width="97.667px" height="98.167px" viewBox="0 0 97.667 98.167" enable-background="new 0 0 97.667 98.167" xml:space="preserve">
<g>
	<circle fill="none" stroke="#FFFFFF" stroke-width="4" stroke-miterlimit="10" cx="49.112" cy="48.116" r="46.129"/>
	<path fill-rule="evenodd" clip-rule="evenodd" fill="#FFFFFF" d="M48.822,15.169c0.641,0,1.282,0,1.922,0
		c0.089,0.016,0.177,0.038,0.266,0.045c0.528,0.046,1.06,0.071,1.585,0.135c1.965,0.243,3.889,0.673,5.766,1.307
		c2.298,0.777,4.43,1.86,6.328,3.384c1.864,1.496,3.42,3.273,4.784,5.226c1.483,2.125,2.475,4.472,3.135,6.967
		c0.734,2.772,1.051,5.605,1.199,8.459c0.047,0.914,0.05,1.829,0.076,2.744c0.004,0.135,0.026,0.271,0.04,0.406
		c0,1.245,0,2.489,0,3.734c-0.016,0.099-0.04,0.197-0.044,0.295c-0.012,0.256-0.003,0.514-0.024,0.769
		c-0.119,1.451-0.343,2.887-0.674,4.306c-0.599,2.558-1.496,5.01-2.643,7.37c-2.165,4.454-4.827,8.595-7.907,12.469
		c-1.347,1.693-2.813,3.278-4.459,4.688c-1.25,1.069-2.583,2.014-4.087,2.698c-1.403,0.637-2.864,1.001-4.416,0.909
		c-1.356-0.081-2.653-0.41-3.896-0.955c-1.649-0.723-3.11-1.738-4.467-2.911c-1.773-1.533-3.328-3.271-4.764-5.116
		c-2.297-2.949-4.359-6.06-6.286-9.262c-1.271-2.111-2.39-4.301-3.271-6.606c-0.903-2.362-1.523-4.79-1.691-7.322
		c-0.013-0.188-0.061-0.375-0.093-0.562c0-0.75,0-1.501,0-2.252c0.032-0.289,0.08-0.578,0.091-0.867
		c0.073-1.875,0.244-3.742,0.504-5.601c0.316-2.257,0.774-4.485,1.407-6.675c0.684-2.371,1.569-4.661,2.76-6.827
		c1.66-3.02,3.912-5.487,6.839-7.316c3.578-2.237,7.505-3.351,11.698-3.592C48.61,15.211,48.716,15.186,48.822,15.169z
		 M47.151,66.296c-0.128-0.507-0.246-0.966-0.361-1.425c-0.528-2.11-1.324-4.106-2.486-5.95c-1.819-2.887-4.283-5.074-7.28-6.675
		c-2.5-1.337-5.173-2.158-7.946-2.683c-0.074-0.013-0.154-0.001-0.229-0.001c-0.005,0.039-0.011,0.057-0.009,0.075
		c0.249,1.874,0.673,3.706,1.366,5.469c1.63,4.15,4.42,7.24,8.442,9.192c2.314,1.124,4.768,1.739,7.327,1.946
		C46.356,66.274,46.74,66.279,47.151,66.296z M70.635,49.612c-0.105,0-0.178-0.004-0.25,0.001c-0.475,0.031-0.95,0.058-1.424,0.098
		c-1.555,0.13-3.08,0.421-4.568,0.891c-3.852,1.219-6.911,3.494-9.12,6.886c-1.561,2.396-2.517,5.027-2.982,7.843
		c-0.047,0.285-0.075,0.573-0.113,0.882c0.159-0.029,0.283-0.053,0.408-0.074c0.677-0.109,1.357-0.202,2.032-0.329
		c2.277-0.424,4.422-1.207,6.412-2.402c2.542-1.526,4.578-3.574,6.2-6.042c1.542-2.347,2.604-4.905,3.381-7.592
		C70.623,49.733,70.624,49.686,70.635,49.612z"/>
</g>
</svg>
