<?xml version="1.0" encoding="utf-8"?>
<!-- Generator: Adobe Illustrator 16.0.0, SVG Export Plug-In . SVG Version: 6.00 Build 0)  -->
<!DOCTYPE svg PUBLIC "-//W3C//DTD SVG 1.1//EN" "http://www.w3.org/Graphics/SVG/1.1/DTD/svg11.dtd">
<svg version="1.1" id="圖層_1" xmlns="http://www.w3.org/2000/svg" xmlns:xlink="http://www.w3.org/1999/xlink" x="0px" y="0px"
	 width="915.66px" height="261.749px" viewBox="0 0 915.66 261.749" enable-background="new 0 0 915.66 261.749"
	 xml:space="preserve">
<path fill="none" stroke="#FFF7AB" stroke-width="3" stroke-miterlimit="10" d="M448.318,261.749c0,0-10.894-43.1,28.418-54.704
	s41.588-40.671,26.951-43.188c-9.572,0.274-3.75-4.33-2.945-4.511c6.515-3.359-0.465-3.465-1.564-3.299
	c-7.454,0.781-4.532-0.602-4.532-0.602s2.248-0.791,3.66-1.236c12.227-4.613-9.005-4.521-11.14-4.731
	c-7.948-1.024-6.087-9.32-6.055-9.911c0.094-4.549,3.708-1.482,3.776-0.957c1.108,6.665-5.131,7.133-7.102,7.381
	c-12.576,1.214,0.946-5.403,0.946-5.403s-10.593-7.146-12.87-7.428c-18.417-2.977-2.485-8.973-1.873-8.908
	c9.042,0.032,2.829,2.952,1.537,3.15c-4.269,1.144-6.489-6.582-8.874-5.747c-18.21,3.722-6.484-3.449-4.995-4.064
	c10.372-4.654-2.129-4.746-5.458-4.896c-15.064-0.944-9.953-11.194-9.58-11.632c1.836-1.94,2.68-1.175,3.185-0.42
	c3.949,6.76-5.298,8.623-6.853,8.854c-8.525,1.664-3.364-2.973-3.146-3.214c0.711-0.712,4.409-2.281,3.412-2.281
	c-13.068,1.331-5.257-3.037-4.164-3.673c7.505-3.971-0.684-3.863-2.206-3.796c-10.507,1.042-3.724-2.02-2.882-2.251
	c7.058-2.44-1.644-2.177-3.779-2.174c-12.218-0.237-4.687-3.887-1.974-4.941c14.006-5.185-12.792-4.362-12.792-4.362
	c-16.812-2.035,8.203-39.043,22.175-45.912c13.972-6.867,20.721-36.114,20.721-36.114"/>
</svg>
