<?xml version="1.0" encoding="utf-8"?>
<!-- Generator: Adobe Illustrator 16.0.0, SVG Export Plug-In . SVG Version: 6.00 Build 0)  -->
<!DOCTYPE svg PUBLIC "-//W3C//DTD SVG 1.1//EN" "http://www.w3.org/Graphics/SVG/1.1/DTD/svg11.dtd">
<svg version="1.1" id="圖層_1" xmlns="http://www.w3.org/2000/svg" xmlns:xlink="http://www.w3.org/1999/xlink" x="0px" y="0px"
	 width="119.313px" height="51.168px" viewBox="0 0 119.313 51.168" enable-background="new 0 0 119.313 51.168"
	 xml:space="preserve">
<g>
	<g>
		<line fill="none" stroke="#1D2B57" stroke-width="5" stroke-miterlimit="10" x1="60.787" y1="0.126" x2="60.787" y2="-18.122"/>
	</g>
	<line fill="none" stroke="#F1916F" stroke-width="5" stroke-miterlimit="10" x1="60.787" y1="0.126" x2="60.787" y2="32.794"/>
	<line fill="none" stroke="#F1916F" stroke-width="5" stroke-miterlimit="10" x1="60.787" y1="6.794" x2="47.424" y2="13.461"/>
	<line fill="none" stroke="#F1916F" stroke-width="5" stroke-miterlimit="10" x1="47.424" y1="13.461" x2="37.699" y2="18.794"/>
	<line fill="none" stroke="#F1916F" stroke-width="5" stroke-miterlimit="10" x1="60.787" y1="6.794" x2="80.287" y2="18.794"/>
	<line fill="none" stroke="#F1916F" stroke-width="5" stroke-miterlimit="10" x1="60.787" y1="20.712" x2="47.424" y2="32.794"/>
	<line fill="none" stroke="#F1916F" stroke-width="5" stroke-miterlimit="10" x1="60.787" y1="32.794" x2="73.287" y2="41.044"/>
	<line fill="none" stroke="#F1916F" stroke-width="5" stroke-miterlimit="10" x1="73.287" y1="14.487" x2="69.787" y2="28.544"/>
	<line fill="none" stroke="#F1916F" stroke-width="5" stroke-miterlimit="10" x1="80.287" y1="18.794" x2="87.037" y2="35.546"/>
	<line fill="none" stroke="#F1916F" stroke-width="5" stroke-miterlimit="10" x1="37.699" y1="18.794" x2="28.787" y2="29.794"/>
	<line fill="none" stroke="#F1916F" stroke-width="5" stroke-miterlimit="10" x1="47.424" y1="32.794" x2="40.787" y2="43.044"/>
	<line fill="none" stroke="#F1916F" stroke-width="5" stroke-miterlimit="10" x1="47.424" y1="32.794" x2="56.355" y2="47.544"/>
	<line fill="none" stroke="#F1916F" stroke-width="5" stroke-miterlimit="10" x1="73.287" y1="41.044" x2="71.838" y2="51.294"/>
	<line fill="none" stroke="#F1916F" stroke-width="5" stroke-miterlimit="10" x1="37.699" y1="18.794" x2="37.699" y2="33.794"/>
	<line fill="none" stroke="#F1916F" stroke-width="5" stroke-miterlimit="10" x1="73.287" y1="41.044" x2="83.662" y2="45.294"/>
	<line fill="none" stroke="#F1916F" stroke-width="5" stroke-miterlimit="10" x1="80.287" y1="18.794" x2="94.287" y2="26.753"/>
</g>
</svg>
