<?xml version="1.0" encoding="utf-8"?>
<!-- Generator: Adobe Illustrator 16.0.0, SVG Export Plug-In . SVG Version: 6.00 Build 0)  -->
<!DOCTYPE svg PUBLIC "-//W3C//DTD SVG 1.1//EN" "http://www.w3.org/Graphics/SVG/1.1/DTD/svg11.dtd">
<svg version="1.1" id="圖層_1" xmlns="http://www.w3.org/2000/svg" xmlns:xlink="http://www.w3.org/1999/xlink" x="0px" y="0px"
	 width="120.75px" height="82.582px" viewBox="0 0 120.75 82.582" enable-background="new 0 0 120.75 82.582" xml:space="preserve">
<g>
	<g>
		<line fill="none" stroke="#1D2B57" stroke-width="5" stroke-miterlimit="10" x1="61.787" y1="82.708" x2="61.787" y2="64.46"/>
		<line fill="none" stroke="#1D2B57" stroke-width="5" stroke-miterlimit="10" x1="61.787" y1="64.46" x2="49.287" y2="53.46"/>
		<line fill="none" stroke="#1D2B57" stroke-width="5" stroke-miterlimit="10" x1="61.787" y1="64.46" x2="79.787" y2="40.96"/>
		<line fill="none" stroke="#1D2B57" stroke-width="5" stroke-miterlimit="10" x1="70.787" y1="52.71" x2="61.787" y2="31.46"/>
		<line fill="none" stroke="#1D2B57" stroke-width="5" stroke-miterlimit="10" x1="65.811" y1="40.96" x2="76.287" y2="27.96"/>
		<line fill="none" stroke="#1D2B57" stroke-width="5" stroke-miterlimit="10" x1="51.936" y1="55.792" x2="55.537" y2="40.96"/>
		<line fill="none" stroke="#1D2B57" stroke-width="5" stroke-miterlimit="10" x1="51.936" y1="55.792" x2="34.287" y2="48.376"/>
		<line fill="none" stroke="#1D2B57" stroke-width="5" stroke-miterlimit="10" x1="43.111" y1="52.083" x2="43.111" y2="34.46"/>
		<line fill="none" stroke="#1D2B57" stroke-width="5" stroke-miterlimit="10" x1="43.111" y1="38.96" x2="53.736" y2="23.46"/>
		<line fill="none" stroke="#1D2B57" stroke-width="5" stroke-miterlimit="10" x1="43.111" y1="38.96" x2="34.287" y2="27.96"/>
		<line fill="none" stroke="#1D2B57" stroke-width="5" stroke-miterlimit="10" x1="53.736" y1="23.46" x2="66.287" y2="20.96"/>
		<line fill="none" stroke="#1D2B57" stroke-width="5" stroke-miterlimit="10" x1="53.736" y1="23.46" x2="45.287" y2="14.96"/>
		<line fill="none" stroke="#1D2B57" stroke-width="5" stroke-miterlimit="10" x1="76.287" y1="27.96" x2="76.287" y2="19.21"/>
		<line fill="none" stroke="#1D2B57" stroke-width="5" stroke-miterlimit="10" x1="76.287" y1="27.96" x2="86.287" y2="27.96"/>
		<line fill="none" stroke="#1D2B57" stroke-width="5" stroke-miterlimit="10" x1="72.838" y1="50.033" x2="86.287" y2="48.376"/>
		<line fill="none" stroke="#1D2B57" stroke-width="5" stroke-miterlimit="10" x1="86.287" y1="48.376" x2="95.287" y2="50.033"/>
		<line fill="none" stroke="#1D2B57" stroke-width="5" stroke-miterlimit="10" x1="95.287" y1="50.033" x2="106.287" y2="38.96"/>
		<line fill="none" stroke="#1D2B57" stroke-width="5" stroke-miterlimit="10" x1="86.287" y1="48.376" x2="86.287" y2="35.626"/>
		<line fill="none" stroke="#1D2B57" stroke-width="5" stroke-miterlimit="10" x1="86.287" y1="35.626" x2="95.287" y2="29.876"/>
		<line fill="none" stroke="#1D2B57" stroke-width="5" stroke-miterlimit="10" x1="95.287" y1="29.876" x2="93.537" y2="16.876"/>
		<line fill="none" stroke="#1D2B57" stroke-width="5" stroke-miterlimit="10" x1="95.029" y1="27.96" x2="106.287" y2="19.21"/>
		<line fill="none" stroke="#1D2B57" stroke-width="5" stroke-miterlimit="10" x1="105.084" y1="40.171" x2="102.037" y2="29.876"/>
		<line fill="none" stroke="#1D2B57" stroke-width="5" stroke-miterlimit="10" x1="106.287" y1="40.042" x2="119.85" y2="34.71"/>
		<line fill="none" stroke="#1D2B57" stroke-width="5" stroke-miterlimit="10" x1="48.424" y1="18.116" x2="66.287" y2="3.876"/>
		<line fill="none" stroke="#1D2B57" stroke-width="5" stroke-miterlimit="10" x1="57.355" y1="10.996" x2="51.936" y2="1.376"/>
		<line fill="none" stroke="#1D2B57" stroke-width="5" stroke-miterlimit="10" x1="34.287" y1="29.876" x2="36.787" y2="10.996"/>
		<line fill="none" stroke="#1D2B57" stroke-width="5" stroke-miterlimit="10" x1="34.287" y1="29.876" x2="19.787" y2="23.376"/>
		<line fill="none" stroke="#1D2B57" stroke-width="5" stroke-miterlimit="10" x1="19.787" y1="23.376" x2="23.787" y2="8.876"/>
		<line fill="none" stroke="#1D2B57" stroke-width="5" stroke-miterlimit="10" x1="21.58" y1="16.876" x2="6.537" y2="14.96"/>
		<line fill="none" stroke="#1D2B57" stroke-width="5" stroke-miterlimit="10" x1="34.287" y1="48.376" x2="8.537" y2="48.376"/>
		<line fill="none" stroke="#1D2B57" stroke-width="5" stroke-miterlimit="10" x1="26.454" y1="48.376" x2="19.787" y2="35.024"/>
		<line fill="none" stroke="#1D2B57" stroke-width="5" stroke-miterlimit="10" x1="19.787" y1="35.024" x2="0.537" y2="37.376"/>
		<line fill="none" stroke="#1D2B57" stroke-width="5" stroke-miterlimit="10" x1="8.537" y1="35.626" x2="6.537" y2="26.626"/>
	</g>
</g>
</svg>
